# xmcd
# 
# Track frame offsets:
#     150
#     13362
#     29877
#     49110
#     66542
#     80972
#     98937
#     109225
#     123377
#     140937
#     158597
#     174982
#     192777
#     213352
#     230185
#     250642
#     279425
# 
# Disc length: 3929
# 
# Revision: 4
# Processed by: cddbd v1.5.2PL0 Copyright (c) Steve Scherf et al.
# Submitted via: fre:ac v1.1beta1pre5
# 
DISCID=060f5711
DTITLE=Garou - Reviens
DYEAR=2003
DGENRE=Pop
TTITLE0=Passe Ta Route
TTITLE1=Et Si On Dormait
TTITLE2=Hemingway
TTITLE3=L'Aveu
TTITLE4=Reviens (Où Te Caches-Tu ?)
TTITLE5=Pour L'Amour D'Une Femme
TTITLE6=Pendant Que Mes Cheveux Poussent
TTITLE7=Les Filles
TTITLE8=Le Sucre Et Le Sel
TTITLE9=Quand Passe La Passion
TTITLE10=Au Coeur De La Terre
TTITLE11=Prière Indienne
TTITLE12=Tout Cet Amour Là
TTITLE13=Ne Me Parlez Plus D'Elle
TTITLE14=Ton Premier Regard
TTITLE15=Une Dernière Fois Encore
TTITLE16=La Rivière De Notre Enfance (duo avec Michel Sardou)
EXTD=YEAR: 2003
EXTT0=
EXTT1=
EXTT2=
EXTT3=
EXTT4=
EXTT5=
EXTT6=
EXTT7=
EXTT8=
EXTT9=
EXTT10=
EXTT11=
EXTT12=
EXTT13=
EXTT14=
EXTT15=
EXTT16=
PLAYORDER=
